<svg width="9" height="18" viewBox="0 0 9 18" fill="none" xmlns="http://www.w3.org/2000/svg">
<path d="M1.23229 17.7578C0.944872 17.7583 0.666326 17.6582 0.445011 17.4748C0.32045 17.3716 0.217486 17.2447 0.142015 17.1016C0.0665446 16.9585 0.0200502 16.8019 0.00519536 16.6408C-0.00965952 16.4797 0.00741716 16.3172 0.0554469 16.1627C0.103477 16.0082 0.181515 15.8647 0.285094 15.7404L5.79607 9.14687L0.481916 2.54108C0.379734 2.41525 0.303427 2.27047 0.257381 2.11505C0.211335 1.95964 0.196458 1.79666 0.213605 1.63548C0.230752 1.47429 0.279584 1.31809 0.357296 1.17584C0.435008 1.0336 0.540068 0.908108 0.666435 0.806594C0.793711 0.694608 0.942761 0.610138 1.10423 0.558486C1.2657 0.506834 1.4361 0.489115 1.60475 0.506442C1.77339 0.523768 1.93663 0.575765 2.08422 0.65917C2.23182 0.742575 2.36058 0.855587 2.46242 0.991114L8.40394 8.37189C8.58488 8.592 8.68378 8.86809 8.68378 9.15302C8.68378 9.43795 8.58488 9.71404 8.40394 9.93415L2.2533 17.3149C2.1299 17.4638 1.97314 17.5815 1.79574 17.6584C1.61834 17.7354 1.42531 17.7694 1.23229 17.7578Z" fill="#C6C6C8"/>
</svg>
